# xmcd
#
# Track frame offsets: 
#        150
#        33869
#        58877
#        86182
#        114609
#        145740
#        173467
#
# Disc length: 2559 seconds
#
# Revision: 0
# Processed by: cddbd v1.5.2PL0 Copyright (c) Steve Scherf et al.
# Submitted via: ExactAudioCopy v1.0b3
#
DISCID=5809fd07
DTITLE=Dazzle - Dazzle
DYEAR=1979
DGENRE=Disco
TTITLE0=Walk Before You Run
TTITLE1=It's Not The Same
TTITLE2=All
TTITLE3=You Dazzle Me!!!
TTITLE4=Reaching
TTITLE5=Slipped Disco
TTITLE6=Walk Before You Run (7" Edit)
EXTD=
EXTT0=
EXTT1=
EXTT2=
EXTT3=
EXTT4=
EXTT5=
EXTT6=
PLAYORDER=
